<?xml version="1.0" standalone="no"?>
<!DOCTYPE svg PUBLIC "-//W3C//DTD SVG 20010904//EN"
 "http://www.w3.org/TR/2001/REC-SVG-20010904/DTD/svg10.dtd">
<svg version="1.0" xmlns="http://www.w3.org/2000/svg"
 width="725.000000pt" height="725.000000pt" viewBox="0 0 725.000000 725.000000"
 preserveAspectRatio="xMidYMid meet">
<metadata>
Created by potrace 1.11, written by Peter Selinger 2001-2013
</metadata>
<g transform="translate(0.000000,725.000000) scale(0.100000,-0.100000)"
fill="#000000" stroke="none">
<path d="M0 3625 l0 -3625 3625 0 3625 0 0 3625 0 3625 -3625 0 -3625 0 0
-3625z m3828 2378 c16 -46 640 -1717 1152 -3088 266 -709 485 -1298 487 -1307
5 -17 -10 -18 -215 -18 l-220 0 -10 28 c-5 15 -86 238 -180 497 -94 259 -200
551 -235 650 l-65 180 -934 3 -933 2 -245 -677 -246 -678 -223 -3 c-177 -2
-222 0 -218 10 25 66 1278 3414 1434 3833 113 303 209 560 214 573 8 22 10 22
218 22 l209 0 10 -27z"/>
<path d="M3589 5483 c-6 -16 -25 -71 -44 -123 -26 -75 -560 -1546 -711 -1957
l-34 -93 805 0 c443 0 805 3 805 8 1 18 -795 2192 -803 2192 -4 0 -12 -12 -18
-27z"/>
</g>
</svg>
