<?xml version="1.0" standalone="no"?>
<!DOCTYPE svg PUBLIC "-//W3C//DTD SVG 20010904//EN"
 "http://www.w3.org/TR/2001/REC-SVG-20010904/DTD/svg10.dtd">
<svg version="1.0" xmlns="http://www.w3.org/2000/svg"
 width="796.000000pt" height="796.000000pt" viewBox="0 0 796.000000 796.000000"
 preserveAspectRatio="xMidYMid meet">
<metadata>
Created by potrace 1.14, written by Peter Selinger 2001-2017
</metadata>
<g transform="translate(0.000000,796.000000) scale(0.100000,-0.100000)"
fill="#000000" stroke="none">
<path d="M3764 7040 c-98 -25 -137 -43 -209 -95 -253 -180 -329 -522 -178
-795 52 -93 160 -198 253 -244 l75 -37 0 -442 0 -443 -80 -22 c-44 -12 -129
-47 -190 -77 l-109 -56 -310 310 -309 309 23 69 c31 94 38 244 15 333 -73 281
-306 464 -590 464 -213 0 -395 -100 -513 -282 -63 -98 -84 -168 -89 -307 -5
-111 -3 -126 21 -199 36 -105 67 -157 149 -243 154 -162 404 -223 614 -150
l71 24 311 -311 312 -312 -50 -94 c-46 -90 -66 -142 -91 -237 l-11 -43 -443 0
-444 0 -17 43 c-45 112 -164 237 -279 292 -111 52 -184 68 -301 63 -278 -13
-496 -191 -565 -464 -81 -318 118 -653 436 -734 290 -74 591 69 708 338 l19
42 446 0 447 0 18 -72 c10 -40 45 -123 76 -185 l57 -112 -309 -315 -309 -314
-72 26 c-186 65 -408 25 -570 -103 -167 -132 -255 -369 -214 -575 32 -166 132
-318 265 -406 31 -21 95 -51 142 -68 75 -27 98 -30 195 -30 124 1 209 24 312
86 241 144 348 448 254 721 l-19 54 313 313 312 312 68 -41 c76 -46 144 -73
240 -97 l65 -16 0 -444 0 -443 -81 -43 c-102 -54 -209 -162 -256 -258 -89
-184 -86 -391 10 -575 46 -88 164 -201 257 -248 339 -170 735 -2 861 363 28
83 31 242 5 340 -45 170 -180 329 -338 398 l-48 21 0 450 0 450 43 11 c95 25
147 45 240 93 l97 52 311 -311 310 -310 -27 -80 c-70 -207 -11 -446 149 -609
115 -115 260 -176 426 -176 100 0 173 16 269 63 156 74 279 225 322 393 73
284 -62 571 -331 701 -123 60 -279 71 -424 29 l-87 -26 -92 88 c-50 48 -193
186 -318 307 l-226 219 53 101 c31 58 63 138 77 189 l23 87 445 0 445 0 34
-72 c67 -145 236 -279 401 -319 76 -18 223 -15 295 6 218 62 396 249 440 460
44 209 -14 404 -165 556 -117 118 -235 173 -392 185 -237 17 -471 -115 -574
-325 l-39 -80 -446 0 -447 -1 -7 38 c-12 64 -53 171 -99 257 l-44 83 313 312
312 312 59 -22 c74 -29 248 -39 333 -20 158 35 323 163 399 310 70 134 88 320
43 455 -65 198 -192 334 -379 403 -83 30 -231 41 -324 22 -358 -69 -568 -443
-450 -796 l19 -54 -305 -313 c-167 -171 -307 -312 -311 -312 -3 0 -53 24 -111
53 -58 29 -141 62 -185 74 l-80 22 0 442 c0 243 2 444 5 446 3 2 37 19 75 37
88 44 197 150 248 241 57 104 80 205 74 325 -8 172 -62 290 -189 417 -138 138
-371 199 -564 148z m290 -2510 c108 -27 190 -74 272 -155 286 -281 210 -768
-147 -944 -187 -92 -351 -92 -538 0 -357 176 -433 663 -147 944 153 151 357
207 560 155z"/>
</g>
</svg>
